<svg width="1538" height="269" viewBox="0 0 1538 269" fill="none" xmlns="http://www.w3.org/2000/svg">
<path d="M464.865 60H502.703L529.73 96.8182L558.108 60H591.892C598.649 60 598.649 60 595.946 65.4545C593.243 70.9091 556.757 135 556.757 135L600 210H558.108L529.73 163.636L502.581 210H471.5C464.743 210 464.743 210 467.446 204.545L501.351 135L464.865 60Z" fill="#FFC906"/>
<path d="M335.135 110.455V192.273C335.135 203.182 339.189 210 352.703 210H439.189C458.108 210 470.27 199.091 470.27 178.636V91.3636C470.27 70.9091 458.108 60 439.189 60H383.784V91.3636H418.919C422.973 91.3636 432.432 96.8182 432.432 110.455V160.909C432.432 173.182 432.432 178.636 416.216 178.636H372.973V135C372.973 125.455 348.649 105 341.892 105C335.135 105 335.135 105 335.135 110.455Z" fill="#FFC906"/>
<path d="M0 210H43.2433L45.9459 148.636H87.8378C104.054 126.818 105.405 117.273 85.1351 117.273H43.2433V96.8182H104.054C104.054 96.8182 131.392 198.182 135.446 205C139.5 211.818 185.446 211.818 189.5 205L209.459 105C212.625 99.0653 214.402 99.9697 217.568 105C217.568 105 240.649 198.182 242 205C243.351 211.818 293.351 211.818 296.054 205L322.973 91.3636H377.027V60H286.486L271.622 160.909C267.346 164.841 264.584 164.012 259.459 160.909C259.459 160.909 237.838 70.9091 236.486 65.4545C235.135 60 191.892 60 189.189 65.4545L167.568 160.909C163.345 164.045 160.979 164.763 156.757 160.909C156.757 160.909 140.541 70.9091 139.189 65.4545C137.838 60 135.135 60 129.73 60H18.9189C9.45946 60 -1.19813e-06 62.7273 0 79.0909V210Z" fill="#FFC906"/>
<path d="M0 210H43.2433L45.9459 148.636H87.8378C104.054 126.818 105.405 117.273 85.1351 117.273H43.2433V96.8182H104.054C104.054 96.8182 131.392 198.182 135.446 205C139.5 211.818 185.446 211.818 189.5 205L209.459 105C212.625 99.0653 214.402 99.9697 217.568 105C217.568 105 240.649 198.182 242 205C243.351 211.818 293.351 211.818 296.054 205L322.973 91.3636H377.027V60H286.486L271.622 160.909C267.346 164.841 264.584 164.012 259.459 160.909C259.459 160.909 237.838 70.9091 236.486 65.4545C235.135 60 191.892 60 189.189 65.4545L167.568 160.909C163.345 164.045 160.979 164.763 156.757 160.909C156.757 160.909 140.541 70.9091 139.189 65.4545C137.838 60 135.135 60 129.73 60H18.9189C9.45946 60 -1.19813e-06 62.7273 0 79.0909V210Z" fill="#0E113E"/>
<path d="M991.68 209V112.4H1013.38V209H991.68Z" fill="#0E113E"/>
<path d="M1068.72 210.96C1059.67 210.96 1051.69 209 1044.78 205.08C1037.97 201.067 1032.6 195.327 1028.68 187.86C1024.85 180.3 1022.94 171.247 1022.94 160.7C1022.94 150.153 1024.85 141.147 1028.68 133.68C1032.6 126.12 1037.97 120.38 1044.78 116.46C1051.69 112.447 1059.67 110.44 1068.72 110.44C1077.77 110.44 1085.71 112.447 1092.52 116.46C1099.43 120.38 1104.79 126.12 1108.62 133.68C1112.54 141.147 1114.5 150.153 1114.5 160.7C1114.5 171.247 1112.54 180.3 1108.62 187.86C1104.79 195.327 1099.43 201.067 1092.52 205.08C1085.71 209 1077.77 210.96 1068.72 210.96ZM1068.72 190.52C1075.91 190.52 1081.65 188.047 1085.94 183.1C1090.23 178.06 1092.38 170.593 1092.38 160.7C1092.38 150.807 1090.23 143.387 1085.94 138.44C1081.65 133.4 1075.91 130.88 1068.72 130.88C1061.53 130.88 1055.79 133.4 1051.5 138.44C1047.21 143.387 1045.06 150.807 1045.06 160.7C1045.06 170.593 1047.21 178.06 1051.5 183.1C1055.79 188.047 1061.53 190.52 1068.72 190.52Z" fill="#0E113E"/>
<path d="M1133.48 209V188.84H1165.68C1170.16 188.84 1173.38 187.953 1175.34 186.18C1177.3 184.407 1178.28 181.933 1178.28 178.76C1178.28 175.68 1177.3 173.253 1175.34 171.48C1173.38 169.707 1170.16 168.82 1165.68 168.82H1133.48V155.8H1169.46C1179.54 155.8 1187.2 158.227 1192.42 163.08C1197.74 167.933 1200.4 174.093 1200.4 181.56C1200.4 189.587 1197.56 196.167 1191.86 201.3C1186.17 206.433 1177.91 209 1167.08 209H1133.48ZM1123.96 209V112.4H1145.66V209H1123.96ZM1133.48 160.14V151.04H1162.32C1166.71 151.04 1169.88 150.247 1171.84 148.66C1173.8 146.98 1174.78 144.693 1174.78 141.8C1174.78 138.907 1173.8 136.667 1171.84 135.08C1169.88 133.4 1166.71 132.56 1162.32 132.56H1133.48V112.4H1163.86C1171.05 112.4 1177.07 113.473 1181.92 115.62C1186.87 117.673 1190.6 120.567 1193.12 124.3C1195.64 128.033 1196.9 132.42 1196.9 137.46C1196.9 144.087 1194.06 149.547 1188.36 153.84C1182.76 158.04 1174.55 160.14 1163.72 160.14H1133.48Z" fill="white"/>
<path d="M1133.48 209V188.84H1165.68C1170.16 188.84 1173.38 187.953 1175.34 186.18C1177.3 184.407 1178.28 181.933 1178.28 178.76C1178.28 175.68 1177.3 173.253 1175.34 171.48C1173.38 169.707 1170.16 168.82 1165.68 168.82H1133.48V155.8H1169.46C1179.54 155.8 1187.2 158.227 1192.42 163.08C1197.74 167.933 1200.4 174.093 1200.4 181.56C1200.4 189.587 1197.56 196.167 1191.86 201.3C1186.17 206.433 1177.91 209 1167.08 209H1133.48ZM1123.96 209V112.4H1145.66V209H1123.96ZM1133.48 160.14V151.04H1162.32C1166.71 151.04 1169.88 150.247 1171.84 148.66C1173.8 146.98 1174.78 144.693 1174.78 141.8C1174.78 138.907 1173.8 136.667 1171.84 135.08C1169.88 133.4 1166.71 132.56 1162.32 132.56H1133.48V112.4H1163.86C1171.05 112.4 1177.07 113.473 1181.92 115.62C1186.87 117.673 1190.6 120.567 1193.12 124.3C1195.64 128.033 1196.9 132.42 1196.9 137.46C1196.9 144.087 1194.06 149.547 1188.36 153.84C1182.76 158.04 1174.55 160.14 1163.72 160.14H1133.48Z" fill="#FFC906"/>
<path d="M1209.04 209V112.4H1230.74V209H1209.04ZM1218.56 209V188.7H1272.46V209H1218.56Z" fill="white"/>
<path d="M1209.04 209V112.4H1230.74V209H1209.04ZM1218.56 209V188.7H1272.46V209H1218.56Z" fill="#FFC906"/>
<path d="M1343.71 209L1314.31 112.4H1336.01L1366.95 209H1343.71ZM1272.45 209L1303.39 112.4H1323.83L1295.27 209H1272.45ZM1293.87 186.88V167.7H1345.39V186.88H1293.87Z" fill="white"/>
<path d="M1343.71 209L1314.31 112.4H1336.01L1366.95 209H1343.71ZM1272.45 209L1303.39 112.4H1323.83L1295.27 209H1272.45ZM1293.87 186.88V167.7H1345.39V186.88H1293.87Z" fill="#FFC906"/>
<path d="M1380.92 209V188.7H1408.22C1416.25 188.7 1422.32 186.227 1426.42 181.28C1430.53 176.24 1432.58 169.38 1432.58 160.7C1432.58 151.927 1430.53 145.067 1426.42 140.12C1422.32 135.173 1416.25 132.7 1408.22 132.7H1380.92V112.4H1409.62C1419.24 112.4 1427.4 114.407 1434.12 118.42C1440.84 122.34 1445.93 127.94 1449.38 135.22C1452.93 142.407 1454.7 150.9 1454.7 160.7C1454.7 170.5 1452.93 179.04 1449.38 186.32C1445.93 193.507 1440.84 199.107 1434.12 203.12C1427.4 207.04 1419.24 209 1409.62 209H1380.92ZM1371.4 209V112.4H1393.1V209H1371.4Z" fill="white"/>
<path d="M1380.92 209V188.7H1408.22C1416.25 188.7 1422.32 186.227 1426.42 181.28C1430.53 176.24 1432.58 169.38 1432.58 160.7C1432.58 151.927 1430.53 145.067 1426.42 140.12C1422.32 135.173 1416.25 132.7 1408.22 132.7H1380.92V112.4H1409.62C1419.24 112.4 1427.4 114.407 1434.12 118.42C1440.84 122.34 1445.93 127.94 1449.38 135.22C1452.93 142.407 1454.7 150.9 1454.7 160.7C1454.7 170.5 1452.93 179.04 1449.38 186.32C1445.93 193.507 1440.84 199.107 1434.12 203.12C1427.4 207.04 1419.24 209 1409.62 209H1380.92ZM1371.4 209V112.4H1393.1V209H1371.4Z" fill="#FFC906"/>
<path d="M1464.27 209V112.4H1485.97V209H1464.27ZM1473.79 209V188.7H1537.07V209H1473.79ZM1473.79 169.52V150.34H1530.49V169.52H1473.79ZM1473.79 132.7V112.4H1536.51V132.7H1473.79Z" fill="white"/>
<path d="M1464.27 209V112.4H1485.97V209H1464.27ZM1473.79 209V188.7H1537.07V209H1473.79ZM1473.79 169.52V150.34H1530.49V169.52H1473.79ZM1473.79 132.7V112.4H1536.51V132.7H1473.79Z" fill="#FFC906"/>
<path d="M936.084 210.097H846.593V193.69L759 222L845.329 177.926L888.967 158.302V177.926H929.127C944.199 177.934 943.314 148.98 929.127 148.973C914.94 148.965 913 148.973 913 148.973L976.561 120.341L962.014 131.279C999.961 154.442 982.253 210.097 936.084 210.097Z" fill="#0E113E"/>
<path fill-rule="evenodd" clip-rule="evenodd" d="M847.542 158.302L986.996 96.8566L1067 56L975.928 86.562C967.336 68.2989 955.374 59.8605 933.554 59.8605H847.542V158.302ZM889.283 117.124V93.9612H925.016C939.563 93.9612 937.033 117.124 925.016 117.124H889.283Z" fill="#0E113E"/>
<path d="M691 0H694V269H691V0Z" fill="#B2B2B2"/>
</svg>
