<?xml version="1.0" encoding="utf-8"?>

<!DOCTYPE svg PUBLIC "-//W3C//DTD SVG 1.1//EN" "http://www.w3.org/Graphics/SVG/1.1/DTD/svg11.dtd">
<!-- Uploaded to: SVG Repo, www.svgrepo.com, Generator: SVG Repo Mixer Tools -->
<svg height="800px" width="800px" version="1.1" id="_x32_" xmlns="http://www.w3.org/2000/svg" xmlns:xlink="http://www.w3.org/1999/xlink" 
	 viewBox="0 0 512 512"  xml:space="preserve">
<style type="text/css">
	.st0{fill:#757575;}
</style>
<g>
	<polygon class="st0" points="218.168,395.652 218.578,395.762 218.621,395.77 	"/>
	<polygon class="st0" points="385.614,160.784 385.58,160.792 385.127,160.92 	"/>
	<polygon class="st0" points="395.763,293.464 395.77,293.439 395.779,293.405 	"/>
	<polygon class="st0" points="351.225,126.352 351.233,126.334 351.233,126.317 	"/>
	<polygon class="st0" points="293.909,116.366 293.516,116.255 293.482,116.255 	"/>
	<path class="st0" d="M209.361,278.576c-16.956,0-30.7,13.744-30.7,30.717c0,16.956,13.744,30.7,30.7,30.7
		c16.972,0,30.708-13.744,30.708-30.7C240.07,292.32,226.334,278.576,209.361,278.576z"/>
	<path class="st0" d="M227.197,173.878c-17.118,0-30.99,13.872-30.99,30.99c0,17.118,13.872,30.99,30.99,30.99
		c17.118,0,30.99-13.872,30.99-30.99C258.186,187.75,244.315,173.878,227.197,173.878z"/>
	<path class="st0" d="M314.358,230.332c-10.908,0-19.74,8.832-19.74,19.74c0,10.9,8.832,19.732,19.74,19.732
		c10.908,0,19.741-8.833,19.741-19.732C334.099,239.164,325.266,230.332,314.358,230.332z"/>
	<path class="st0" d="M308.148,311.377c-12.112,0-21.928,9.815-21.928,21.927c0,12.113,9.815,21.936,21.928,21.936
		c12.112,0,21.936-9.823,21.936-21.936C330.084,321.192,320.26,311.377,308.148,311.377z"/>
	<path class="st0" d="M487.605,224.745l-59.426-14.88l44.042-42.616c6.432-6.235,9.814-14.666,9.814-23.174
		c0-5.535-1.426-11.104-4.322-16.11c-5.851-10.104-16.563-16.101-27.872-16.092l-0.018-0.009c-0.025,0-0.128,0.018-0.162,0.018
		c-2.871,0.016-5.834,0.401-8.781,1.255l0.017-0.009l-58.862,16.828l16.836-58.922c0.837-2.921,1.239-5.902,1.239-8.849
		c0-11.309-5.953-22.038-16.11-27.898c-4.997-2.887-10.575-4.322-16.102-4.322h-0.034c-8.482-0.008-16.922,3.383-23.149,9.849
		l-42.589,44.016l-14.872-59.434C283.667,10.062,270.786,0,256,0c-14.786,0-27.666,10.062-31.254,24.395l-14.872,59.434
		l-42.607-44.041c-6.227-6.433-14.666-9.824-23.165-9.824c-5.493,0-11.079,1.418-16.119,4.339
		c-10.096,5.843-16.05,16.52-16.076,27.796h-0.009v0.17c0,2.93,0.419,5.877,1.239,8.756l16.845,58.939l-58.947-16.854
		c-2.828-0.803-5.732-1.196-8.619-1.222c-0.102-0.008-0.128-0.025-0.256-0.025c-11.292,0-22.022,5.979-27.872,16.144
		c-2.887,4.997-4.322,10.566-4.322,16.085c0,8.507,3.391,16.922,9.806,23.14l44.068,42.632l-59.443,14.88
		C10.063,228.332,0,241.214,0,256c0,14.786,10.063,27.658,24.395,31.246l59.452,14.88L39.779,344.75
		c-6.415,6.21-9.815,14.624-9.815,23.148c0,5.518,1.435,11.096,4.331,16.11c5.586,9.67,15.623,15.495,26.343,16.008l0.154,0.102
		h1.289c0.009,0,0.009,0,0.018,0h0.085c0.026,0,0.043,0,0.069,0c0.034-0.008,0.119,0,0.128-0.008v-0.009
		c2.896-0.017,5.782-0.418,8.602-1.204l0.624-0.18l58.366-16.682l-16.836,58.922c-0.828,2.905-1.246,5.886-1.246,8.85
		c0,11.301,5.97,22.029,16.118,27.898c5.006,2.896,10.593,4.323,16.094,4.323l0.47-0.026v-0.025
		c8.328-0.111,16.537-3.46,22.627-9.695l0.034-0.034l0.009-0.009l42.632-44.076l14.872,59.442C228.333,501.938,241.214,512,256,512
		c14.787,0,27.667-10.062,31.255-24.396l14.88-59.442l42.606,44.05c5.886,6.091,13.762,9.336,21.782,9.67l0.256,0.145h1.118
		c0.043,0,0.086-0.009,0.129-0.009h0.008c5.475-0.026,10.985-1.452,15.94-4.296c10.173-5.877,16.135-16.606,16.135-27.915
		c0-2.955-0.41-5.92-1.23-8.841l-16.854-58.939l58.939,16.854c2.956,0.846,5.936,1.238,8.849,1.238
		c11.233,0,21.851-5.894,27.744-15.854h0.009l0.016-0.025l0.077-0.12l0.077-0.128c2.871-4.988,4.296-10.558,4.296-16.075
		c0-8.526-3.391-16.947-9.823-23.166l-44.042-42.624l59.435-14.88C501.938,283.658,512,270.786,512,256
		C512,241.214,501.938,228.332,487.605,224.745z M480.173,257.555l-64.278,16.092c-9.788,2.434-17.51,10.003-20.125,19.792
		c-0.649,2.4-0.956,4.827-0.956,7.209c0,7.432,2.981,14.684,8.482,20.014l47.638,46.092l0.486,1.162l-0.205,0.777l-1.401,0.812
		l-0.443-0.06l-64.244-18.374l0.556,0.162c-2.554-0.735-5.151-1.085-7.67-1.085c-7.286,0-14.402,2.87-19.698,8.166
		c-5.296,5.279-8.166,12.403-8.166,19.681c0,2.563,0.359,5.142,1.077,7.653l18.211,63.723l0.059,0.435l-0.794,1.384l-0.803,0.213
		l-1.153-0.478l-46.084-47.638c-5.322-5.492-12.574-8.482-20.014-8.482c-2.417,0-4.843,0.316-7.209,0.948
		c-9.763,2.622-17.331,10.326-19.792,20.132l-16.092,64.286L256,481.386l-1.554-1.213l-16.084-64.286
		c-2.46-9.814-10.045-17.51-19.783-20.125c-2.425-0.657-4.868-0.956-7.218-0.956c-7.448,0-14.692,2.99-20.014,8.473l-46.066,47.63
		l-1.178,0.504l-0.778-0.214l-0.82-1.392l0.068-0.435l18.211-63.723l0.009-0.025c0.708-2.503,1.059-5.074,1.059-7.628
		c0.008-7.278-2.871-14.393-8.157-19.681c-5.296-5.304-12.421-8.157-19.698-8.157c-2.554,0-5.117,0.35-7.62,1.068l-63.757,18.22
		l0.026-0.008l-0.462,0.068l-1.375-0.803l-0.231-0.803l0.487-1.145l47.647-46.092l0.017-0.017
		c5.476-5.322,8.465-12.557,8.465-20.006c0-2.4-0.316-4.826-0.948-7.2c-2.614-9.763-10.328-17.348-20.15-19.8l-64.27-16.084
		L30.614,256l1.212-1.554l64.286-16.092c9.806-2.443,17.52-10.028,20.134-19.8c0.632-2.375,0.948-4.8,0.948-7.201
		c0-7.439-2.99-14.684-8.482-20.013l-47.647-46.092l-0.487-1.153l0.214-0.778l0.016-0.034l1.375-0.794l0.428,0.06l63.748,18.228
		l0.05,0.018c2.477,0.692,5.031,1.042,7.586,1.042c7.277,0,14.393-2.853,19.698-8.148l0.016-0.018
		c5.27-5.279,8.149-12.386,8.141-19.672c0-2.554-0.351-5.134-1.068-7.645l-18.211-63.723l-0.068-0.444l0.803-1.375l0.042-0.025
		l0.752-0.206l1.162,0.496l46.083,47.638l0.018,0.017c5.313,5.467,12.54,8.456,19.996,8.456c2.383,0,4.801-0.307,7.184-0.94
		l0.034-0.008c9.738-2.622,17.324-10.31,19.783-20.125l16.084-64.286L256,30.614l1.555,1.212l16.092,64.286
		c2.461,9.806,10.028,17.512,19.792,20.125l0.077,0.017c2.34,0.624,4.741,0.931,7.132,0.931c7.432,0,14.684-2.981,20.005-8.465
		l46.092-47.646l0.017-0.018l1.136-0.478l0.787,0.214l1.076,0.623l-1.05-0.606l0.785,1.375l-0.059,0.453l-18.203,63.697
		c-0.734,2.538-1.076,5.108-1.076,7.662c-0.009,7.286,2.87,14.393,8.157,19.689l0.009,0.008c5.296,5.28,12.403,8.141,19.689,8.141
		c2.512,0,5.066-0.342,7.568-1.042l63.799-18.237l0.069-0.026l0.366-0.043l1.401,0.812l0.205,0.777l-0.495,1.179l-47.613,46.066
		c-5.526,5.33-8.498,12.591-8.498,20.022c0,2.409,0.316,4.834,0.948,7.218v-0.026c2.605,9.798,10.335,17.375,20.15,19.818
		l64.26,16.092l1.213,1.554L480.173,257.555z"/>
</g>
</svg>